<svg width="202" height="62" viewBox="0 0 202 62" fill="none" xmlns="http://www.w3.org/2000/svg">
<path d="M81.75 42.25C79.4667 42.25 77.6833 41.6583 76.4 40.475C75.1333 39.2917 74.4583 37.6417 74.375 35.525C74.3583 35.0417 74.35 34.2667 74.35 33.2C74.35 32.1333 74.3583 31.3583 74.375 30.875C74.4583 28.8083 75.1417 27.1917 76.425 26.025C77.725 24.8417 79.5 24.25 81.75 24.25C83.2833 24.25 84.6 24.5083 85.7 25.025C86.8 25.5417 87.6333 26.1917 88.2 26.975C88.7667 27.7417 89.0667 28.5 89.1 29.25V29.3C89.1 29.4333 89.05 29.55 88.95 29.65C88.85 29.7333 88.725 29.775 88.575 29.775H86C85.8333 29.775 85.7083 29.75 85.625 29.7C85.5417 29.6333 85.4667 29.525 85.4 29.375C85.1667 28.7583 84.7583 28.2333 84.175 27.8C83.5917 27.35 82.7833 27.125 81.75 27.125C80.5833 27.125 79.6667 27.4417 79 28.075C78.35 28.7083 78 29.6833 77.95 31C77.9333 31.4833 77.925 32.2167 77.925 33.2C77.925 34.1667 77.9333 34.9 77.95 35.4C78.05 38.05 79.3333 39.375 81.8 39.375C82.9833 39.375 83.9333 39.0583 84.65 38.425C85.3667 37.775 85.725 36.8167 85.725 35.55V34.775H82.675C82.4917 34.775 82.3417 34.7167 82.225 34.6C82.125 34.4833 82.075 34.3333 82.075 34.15V32.825C82.075 32.6417 82.125 32.4917 82.225 32.375C82.3417 32.2583 82.4917 32.2 82.675 32.2H88.65C88.8333 32.2 88.975 32.2583 89.075 32.375C89.1917 32.4917 89.25 32.6417 89.25 32.825V35.45C89.25 36.8333 88.9417 38.0417 88.325 39.075C87.725 40.0917 86.8583 40.875 85.725 41.425C84.5917 41.975 83.2667 42.25 81.75 42.25ZM100.68 42.25C98.4299 42.25 96.6799 41.675 95.4299 40.525C94.1799 39.375 93.5549 37.6333 93.5549 35.3V25.125C93.5549 24.9417 93.6049 24.7917 93.7049 24.675C93.8215 24.5583 93.9715 24.5 94.1549 24.5H96.4299C96.6132 24.5 96.7549 24.5583 96.8549 24.675C96.9715 24.7917 97.0299 24.9417 97.0299 25.125V35.3C97.0299 36.6333 97.3465 37.6417 97.9799 38.325C98.6132 38.9917 99.5132 39.325 100.68 39.325C101.847 39.325 102.738 38.9917 103.355 38.325C103.988 37.6417 104.305 36.6333 104.305 35.3V25.125C104.305 24.9417 104.363 24.7917 104.48 24.675C104.597 24.5583 104.747 24.5 104.93 24.5H107.18C107.363 24.5 107.505 24.5583 107.605 24.675C107.722 24.7917 107.78 24.9417 107.78 25.125V35.3C107.78 37.6333 107.155 39.375 105.905 40.525C104.672 41.675 102.93 42.25 100.68 42.25ZM113.377 42C113.21 42 113.069 41.9417 112.952 41.825C112.835 41.7083 112.777 41.5667 112.777 41.4V25.1C112.777 24.9167 112.835 24.775 112.952 24.675C113.069 24.5583 113.21 24.5 113.377 24.5H115.727C115.91 24.5 116.052 24.5583 116.152 24.675C116.269 24.775 116.327 24.9167 116.327 25.1V41.4C116.327 41.5667 116.269 41.7083 116.152 41.825C116.052 41.9417 115.91 42 115.727 42H113.377ZM120.423 42C120.29 42 120.165 41.95 120.048 41.85C119.948 41.75 119.898 41.625 119.898 41.475L119.948 41.25L125.973 25.125C126.09 24.7083 126.381 24.5 126.848 24.5H129.573C130.006 24.5 130.298 24.7083 130.448 25.125L136.473 41.25C136.49 41.3 136.498 41.375 136.498 41.475C136.498 41.625 136.448 41.75 136.348 41.85C136.248 41.95 136.131 42 135.998 42H133.823C133.606 42 133.44 41.95 133.323 41.85C133.206 41.75 133.131 41.6417 133.098 41.525L131.923 38.475H124.498L123.323 41.525C123.19 41.8417 122.948 42 122.598 42H120.423ZM131.048 35.6L128.198 27.875L125.373 35.6H131.048ZM152.145 42C151.661 42 151.345 41.7667 151.195 41.3L145.845 25.25L145.795 25.025C145.795 24.875 145.845 24.75 145.945 24.65C146.045 24.55 146.17 24.5 146.32 24.5H148.52C148.736 24.5 148.903 24.5583 149.02 24.675C149.153 24.775 149.245 24.9 149.295 25.05L153.52 37.925L157.745 25.05C157.778 24.9167 157.861 24.7917 157.995 24.675C158.128 24.5583 158.303 24.5 158.52 24.5H160.72C160.853 24.5 160.97 24.55 161.07 24.65C161.186 24.75 161.245 24.875 161.245 25.025L161.195 25.25L155.845 41.3C155.695 41.7667 155.378 42 154.895 42H152.145ZM165.74 42C165.574 42 165.432 41.9417 165.315 41.825C165.199 41.7083 165.14 41.5667 165.14 41.4V25.125C165.14 24.9417 165.19 24.7917 165.29 24.675C165.407 24.5583 165.557 24.5 165.74 24.5H176.74C176.924 24.5 177.074 24.5583 177.19 24.675C177.307 24.7917 177.365 24.9417 177.365 25.125V26.775C177.365 26.9583 177.307 27.1083 177.19 27.225C177.074 27.325 176.924 27.375 176.74 27.375H168.515V31.8H176.19C176.374 31.8 176.524 31.8583 176.64 31.975C176.757 32.075 176.815 32.2167 176.815 32.4V33.95C176.815 34.1333 176.757 34.2833 176.64 34.4C176.524 34.5 176.374 34.55 176.19 34.55H168.515V39.125H176.94C177.124 39.125 177.274 39.1833 177.39 39.3C177.507 39.4167 177.565 39.5667 177.565 39.75V41.4C177.565 41.5833 177.507 41.7333 177.39 41.85C177.274 41.95 177.124 42 176.94 42H165.74ZM186.392 42C186.226 42 186.084 41.9417 185.967 41.825C185.851 41.7083 185.792 41.5667 185.792 41.4V27.575H181.167C181.001 27.575 180.859 27.5167 180.742 27.4C180.626 27.2833 180.567 27.1417 180.567 26.975V25.125C180.567 24.9417 180.617 24.7917 180.717 24.675C180.834 24.5583 180.984 24.5 181.167 24.5H193.917C194.101 24.5 194.251 24.5583 194.367 24.675C194.484 24.7917 194.542 24.9417 194.542 25.125V26.975C194.542 27.1417 194.484 27.2833 194.367 27.4C194.251 27.5167 194.101 27.575 193.917 27.575H189.317V41.4C189.317 41.5667 189.259 41.7083 189.142 41.825C189.026 41.9417 188.876 42 188.692 42H186.392Z" fill="#4D4E6C"/>
<path d="M2 6.85938C2 4.04267 4.83367 2.10822 7.4569 3.13414L48.954 19.3632C50.94 20.1399 51.9675 22.3381 51.2895 24.36L40.5311 56.446C39.8796 58.389 37.865 59.5254 35.8652 59.0779L5.12654 52.1996C3.29914 51.7907 2 50.1687 2 48.2961V6.85938Z" stroke="#6B48FF" stroke-width="4"/>
<path d="M6.50574 24.727C5.93477 22.7531 6.95228 20.6676 8.85949 19.9029L50.5113 3.20093C53.1392 2.14716 56 4.08225 56 6.91356V47.5C56 49.7091 54.2091 51.5 52 51.5H17.257C15.4759 51.5 13.9094 50.3224 13.4145 48.6115L6.50574 24.727Z" stroke="#6B48FF" stroke-width="4"/>
</svg>
