<svg width="70" height="70" viewBox="0 0 70 70" fill="none" xmlns="http://www.w3.org/2000/svg">
<g filter="url(#filter0_d)">
<rect x="3" y="2" width="64" height="64" rx="4" fill="white" fill-opacity="0.01"/>
</g>
<mask id="mask0" mask-type="alpha" maskUnits="userSpaceOnUse" x="3" y="2" width="64" height="64">
<rect x="3" y="2" width="64" height="64" rx="4" fill="white"/>
</mask>
<g mask="url(#mask0)">
<rect x="3" y="2" width="64" height="64" fill="#3F51B5"/>
</g>
<path fill-rule="evenodd" clip-rule="evenodd" d="M30 31.5H43.75C45.875 31.5 47.5 33.125 47.5 35.25V44C47.5 46.125 45.875 47.75 43.75 47.75H26.25C24.125 47.75 22.5 46.125 22.5 44V35.25C22.5 33.125 24.125 31.5 26.25 31.5H27.5V27.75C27.5 25.75 28.25 23.875 29.75 22.5C31.125 21 33 20.25 35 20.25C38.5 20.25 41.625 22.75 42.375 26.25C42.5 27 42 27.625 41.375 27.75C40.75 27.875 40 27.375 39.875 26.75C39.375 24.375 37.375 22.75 35 22.75C33.625 22.75 32.375 23.25 31.5 24.25C30.5 25.125 30 26.375 30 27.75V31.5ZM43.75 45.25C44.5 45.25 45 44.75 45 44V35.25C45 34.5 44.5 34 43.75 34H26.25C25.5 34 25 34.5 25 35.25V44C25 44.75 25.5 45.25 26.25 45.25H43.75Z" fill="white"/>
<defs>
<filter id="filter0_d" x="0" y="0" width="70" height="70" filterUnits="userSpaceOnUse" color-interpolation-filters="sRGB">
<feFlood flood-opacity="0" result="BackgroundImageFix"/>
<feColorMatrix in="SourceAlpha" type="matrix" values="0 0 0 0 0 0 0 0 0 0 0 0 0 0 0 0 0 0 127 0"/>
<feOffset dy="1"/>
<feGaussianBlur stdDeviation="1.5"/>
<feColorMatrix type="matrix" values="0 0 0 0 0 0 0 0 0 0 0 0 0 0 0 0 0 0 0.04 0"/>
<feBlend mode="normal" in2="BackgroundImageFix" result="effect1_dropShadow"/>
<feBlend mode="normal" in="SourceGraphic" in2="effect1_dropShadow" result="shape"/>
</filter>
</defs>
</svg>
